HIERARCHY
ROOT Head
{
	OFFSET 0 0 0
	CHANNELS 6 Xposition Yposition Zposition Zrotation Xrotation Yrotation
	JOINT Brows_Inner_Up
	{
		OFFSET -11.000 0 0
		CHANNELS 3 Zrotation Xrotation Yrotation
		End Site
		{
			OFFSET 0 0 10
		}
	}
	JOINT Brows_Inner_Down
	{
		OFFSET -9.000 0 0
		CHANNELS 3 Zrotation Xrotation Yrotation
		End Site
		{
			OFFSET 0 0 10
		}
	}
	JOINT Brows_Outer_Up
	{
		OFFSET -7.000 0 0
		CHANNELS 3 Zrotation Xrotation Yrotation
		End Site
		{
			OFFSET 0 0 10
		}
	}
	JOINT Brows_Outer_Down
	{
		OFFSET -5.000 0 0
		CHANNELS 3 Zrotation Xrotation Yrotation
		End Site
		{
			OFFSET 0 0 10
		}
	}
	JOINT Lip_Stretch
	{
		OFFSET -3.000 0 0
		CHANNELS 3 Zrotation Xrotation Yrotation
		End Site
		{
			OFFSET 0 0 10
		}
	}
	JOINT Lip_Kiss
	{
		OFFSET -1.000 0 0
		CHANNELS 3 Zrotation Xrotation Yrotation
		End Site
		{
			OFFSET 0 0 10
		}
	}
	JOINT Lip_Corners_Up
	{
		OFFSET 1.000 0 0
		CHANNELS 3 Zrotation Xrotation Yrotation
		End Site
		{
			OFFSET 0 0 10
		}
	}
	JOINT Lip_Corners_Down
	{
		OFFSET 3.000 0 0
		CHANNELS 3 Zrotation Xrotation Yrotation
		End Site
		{
			OFFSET 0 0 10
		}
	}
	JOINT Upper_Lip_Up
	{
		OFFSET 5.000 0 0
		CHANNELS 3 Zrotation Xrotation Yrotation
		End Site
		{
			OFFSET 0 0 10
		}
	}
	JOINT Upper_Lip_Down
	{
		OFFSET 7.000 0 0
		CHANNELS 3 Zrotation Xrotation Yrotation
		End Site
		{
			OFFSET 0 0 10
		}
	}
	JOINT Jaw_Open
	{
		OFFSET 9.000 0 0
		CHANNELS 3 Zrotation Xrotation Yrotation
		End Site
		{
			OFFSET 0 0 10
		}
	}
}
MOTION
Frames:	33
Frame Time:	0.0333333
2.054212 -2.172700 -98.715385 1.064511 5.752433 -0.618706 0 8.166817 0 0 -0.014234 0 0 -0.000000 0 0 9.307488 0 0 -0.000000 0 0 43.565620 0 0 18.576294 0 0 -0.322679 0 0 52.066566 0 0 -0.000000 0 0 -0.471318 0
2.162239 -2.295050 -98.650017 0.690333 4.949831 -1.264871 0 13.553378 0 0 -0.000006 0 0 -0.000000 0 0 5.786453 0 0 -0.000000 0 0 45.150055 0 0 8.326748 0 0 -0.000137 0 0 50.296818 0 0 -0.000000 0 0 -0.000217 0
2.162239 -2.295050 -98.650017 0.690333 4.949831 -1.264871 0 13.553378 0 0 -0.000006 0 0 -0.000000 0 0 5.786453 0 0 -0.000000 0 0 45.150055 0 0 8.326748 0 0 -0.000137 0 0 50.296818 0 0 -0.000000 0 0 -0.000217 0
2.162239 -2.295050 -98.650017 0.690333 4.949831 -1.264871 0 13.553378 0 0 -0.000006 0 0 -0.000000 0 0 5.786453 0 0 -0.000000 0 0 45.150055 0 0 8.326748 0 0 -0.000137 0 0 50.296818 0 0 -0.000000 0 0 -0.000217 0
2.162239 -2.295050 -98.650017 0.690333 4.949831 -1.264871 0 13.553378 0 0 -0.000006 0 0 -0.000000 0 0 5.786453 0 0 -0.000000 0 0 45.150055 0 0 8.326748 0 0 -0.000137 0 0 50.296818 0 0 -0.000000 0 0 -0.000217 0
2.162239 -2.295050 -98.650017 0.690333 4.949831 -1.264871 0 13.553378 0 0 -0.000006 0 0 -0.000000 0 0 5.786453 0 0 -0.000000 0 0 45.150055 0 0 8.326748 0 0 -0.000137 0 0 50.296818 0 0 -0.000000 0 0 -0.000217 0
2.162239 -2.295050 -98.650017 0.690333 4.949831 -1.264871 0 13.553378 0 0 -0.000006 0 0 -0.000000 0 0 5.786453 0 0 -0.000000 0 0 45.150055 0 0 8.326748 0 0 -0.000137 0 0 50.296818 0 0 -0.000000 0 0 -0.000217 0
2.162239 -2.295050 -98.650017 0.690333 4.949831 -1.264871 0 13.553378 0 0 -0.000006 0 0 -0.000000 0 0 5.786453 0 0 -0.000000 0 0 45.150055 0 0 8.326748 0 0 -0.000137 0 0 50.296818 0 0 -0.000000 0 0 -0.000217 0
2.164130 -2.301980 -98.652817 0.767111 4.920663 -1.289071 0 13.302663 0 0 -0.000003 0 0 -0.000000 0 0 5.699895 0 0 -0.000000 0 0 45.307278 0 0 8.895625 0 0 -0.000065 0 0 50.252785 0 0 -0.000000 0 0 -0.000103 0
2.164130 -2.301980 -98.652817 0.767111 4.920663 -1.289071 0 13.302663 0 0 -0.000003 0 0 -0.000000 0 0 5.699895 0 0 -0.000000 0 0 45.307278 0 0 8.895625 0 0 -0.000065 0 0 50.252785 0 0 -0.000000 0 0 -0.000103 0
1.984676 -2.372401 -98.685326 0.447412 4.450717 -0.351736 0 13.108990 0 0 -0.000001 0 0 -0.000000 0 0 6.143543 0 0 0.000000 0 0 37.895512 0 0 8.406221 0 0 -0.000015 0 0 53.003132 0 0 -0.000000 0 0 -0.000023 0
1.978108 -2.369462 -98.686531 0.440315 4.466688 -0.318642 0 12.939546 0 0 -0.000000 0 0 -0.000000 0 0 6.316838 0 0 0.000000 0 0 38.062881 0 0 8.648366 0 0 -0.000007 0 0 52.884899 0 0 -0.000000 0 0 -0.000011 0
2.062262 -2.321285 -98.693207 0.595610 4.313247 -0.805485 0 11.614382 0 0 -0.000000 0 0 -0.000000 0 0 5.126420 0 0 0.000000 0 0 37.569122 0 0 4.440491 0 0 -0.000003 0 0 53.294743 0 0 -0.000000 0 0 -0.000005 0
2.357496 -2.165932 -98.681129 0.689796 3.738284 -2.966624 0 7.867752 0 0 -0.000000 0 0 -0.000000 0 0 11.442518 0 0 0.000000 0 0 8.208972 0 0 1.484507 0 0 -0.000001 0 0 52.829479 0 0 -0.000000 0 0 -0.000001 0
2.193687 -2.191912 -98.663696 0.121876 2.943034 -1.804984 0 6.477885 0 0 -0.000000 0 0 -0.000000 0 0 11.907376 0 0 0.000000 0 0 13.437902 0 0 -1.591972 0 0 1.624260 0 0 48.975731 0 0 -0.000000 0 0 1.997596 0
2.082957 -2.125930 -98.634567 -0.946273 2.405363 -1.442921 0 -0.875431 0 0 -0.000000 0 0 -0.000000 0 0 2.545412 0 0 0.000000 0 0 19.184881 0 0 5.432578 0 0 0.284245 0 0 53.931976 0 0 -0.000000 0 0 2.147718 0
2.304147 -2.073923 -98.752609 -1.465715 2.376921 -3.087964 0 -0.029374 0 0 -0.000000 0 0 2.530976 0 0 -2.089940 0 0 0.000000 0 0 26.472033 0 0 8.033339 0 0 -0.073092 0 0 56.616127 0 0 -0.000000 0 0 0.224782 0
2.265647 -2.136436 -98.859772 -1.888521 2.291706 -2.944576 0 3.336560 0 0 -0.000000 0 0 7.925038 0 0 -1.733540 0 0 0.000000 0 0 24.441063 0 0 8.245045 0 0 -0.096207 0 0 59.756374 0 0 -0.000000 0 0 -0.254866 0
2.247536 -2.146547 -98.862289 -1.853544 2.362807 -2.807513 0 3.695166 0 0 -0.000000 0 0 7.625287 0 0 -1.074917 0 0 0.000000 0 0 24.027174 0 0 7.401024 0 0 -0.061609 0 0 59.615242 0 0 -0.000000 0 0 -0.182276 0
2.350212 -2.162431 -98.850288 -3.134442 1.926564 -3.368686 0 -0.425149 0 0 3.799796 0 0 11.374627 0 0 -0.616383 0 0 0.000000 0 0 20.904982 0 0 -0.646690 0 0 0.967260 0 0 53.987896 0 0 -0.000000 0 0 0.071026 0
2.304232 -2.067324 -98.753448 -5.291447 1.858228 -2.547416 0 -0.931722 0 0 4.811238 0 0 -0.374701 0 0 7.081652 0 0 0.000000 0 0 17.749247 0 0 -1.741701 0 0 14.446467 0 0 39.805210 0 0 -0.000000 0 0 7.553612 0
2.460606 -2.003584 -98.762596 -5.937433 2.126256 -3.432329 0 -0.609542 0 0 6.827207 0 0 -2.039951 0 0 6.406734 0 0 0.000000 0 0 14.993903 0 0 -1.146183 0 0 17.010639 0 0 34.179569 0 0 -0.000000 0 0 5.682223 0
2.602586 -2.048507 -98.706474 -6.407656 2.155325 -4.354540 0 -0.359914 0 0 7.000087 0 0 -1.760079 0 0 1.297588 0 0 0.000000 0 0 21.431652 0 0 -0.678870 0 0 17.173683 0 0 32.673264 0 0 -0.000000 0 0 2.522003 0
2.629098 -2.078379 -98.691139 -6.213844 2.179926 -4.576148 0 -0.107559 0 0 6.473245 0 0 -0.697467 0 0 0.015837 0 0 0.000000 0 0 23.126915 0 0 -0.203522 0 0 15.486855 0 0 34.751415 0 0 0.000000 0 0 1.659342 0
3.117311 -2.151085 -98.622910 -5.623306 2.022568 -6.937722 0 -0.028803 0 0 0.263738 0 0 -0.210300 0 0 4.662221 0 0 0.000000 0 0 7.079017 0 0 -0.054588 0 0 4.090831 0 0 36.654114 0 0 0.000000 0 0 4.234444 0
3.240449 -2.060961 -98.593163 -5.376511 2.188630 -6.917422 0 0.637268 0 0 -1.561857 0 0 -0.110174 0 0 8.849244 0 0 0.000000 0 0 16.139597 0 0 -0.027574 0 0 12.216226 0 0 36.780708 0 0 0.000000 0 0 7.278409 0
3.159730 -1.960831 -98.589966 -5.626493 2.604546 -6.060377 0 3.336420 0 0 -1.459079 0 0 -0.056571 0 0 6.197606 0 0 0.000000 0 0 22.960573 0 0 -0.013763 0 0 15.755617 0 0 31.643093 0 0 0.000000 0 0 4.603162 0
3.163477 -1.929466 -98.593758 -5.444378 2.469358 -5.687778 0 0.532265 0 0 1.177301 0 0 -0.028604 0 0 8.306774 0 0 0.000000 0 0 26.262913 0 0 -0.006803 0 0 11.907453 0 0 29.431660 0 0 0.000000 0 0 3.721800 0
3.134640 -1.890108 -98.686447 -4.429316 2.469559 -4.707453 0 -0.284711 0 0 0.448202 0 0 -0.007067 0 0 3.265457 0 0 0.000000 0 0 29.158337 0 0 -0.001624 0 0 -1.440421 0 0 30.455727 0 0 0.000000 0 0 2.293848 0
3.074994 -1.940330 -98.690430 -3.718119 2.100031 -3.931407 0 -0.216431 0 0 1.508853 0 0 1.031190 0 0 -1.224040 0 0 0.000000 0 0 20.985323 0 0 -0.000786 0 0 1.335546 0 0 31.103779 0 0 0.000000 0 0 3.455874 0
3.049986 -1.961122 -98.688698 -3.559784 1.984129 -3.742954 0 -0.137134 0 0 1.765579 0 0 1.214033 0 0 -1.762892 0 0 0.000000 0 0 19.000515 0 0 -0.000379 0 0 2.733360 0 0 31.380325 0 0 0.000000 0 0 3.787465 0
2.790493 -1.983090 -98.635185 -2.673895 1.454579 -1.885256 0 -0.043864 0 0 3.524645 0 0 -0.125523 0 0 1.764011 0 0 0.000000 0 0 10.574404 0 0 -0.000087 0 0 12.438572 0 0 29.508865 0 0 0.000000 0 0 7.814581 0
2.730030 -1.994048 -98.629852 -2.582802 1.352441 -1.546098 0 -0.023360 0 0 3.351111 0 0 -0.140042 0 0 2.247295 0 0 0.000000 0 0 10.310647 0 0 -0.000041 0 0 12.846295 0 0 29.361641 0 0 0.000000 0 0 8.133364 0
